<svg width="50" height="32" viewBox="0 0 50 32" fill="none" xmlns="http://www.w3.org/2000/svg">
<rect width="50" height="32" rx="3" fill="#F9F9F9"/>
<path d="M14.874 20.9001H12.8013C12.6595 20.9001 12.5389 21.0031 12.5167 21.1431L11.6784 26.4581C11.6618 26.5629 11.743 26.6575 11.8494 26.6575H12.8389C12.9807 26.6575 13.1014 26.5545 13.1235 26.4141L13.3496 24.9806C13.3714 24.8403 13.4923 24.7372 13.6338 24.7372H14.29C15.6553 24.7372 16.4433 24.0766 16.6491 22.7673C16.7418 22.1945 16.653 21.7444 16.3848 21.4292C16.0902 21.0831 15.5677 20.9001 14.874 20.9001ZM15.1131 22.8412C14.9998 23.585 14.4315 23.585 13.8821 23.585H13.5693L13.7887 22.196C13.8018 22.1121 13.8745 22.0502 13.9593 22.0502H14.1027C14.477 22.0502 14.8301 22.0502 15.0125 22.2636C15.1213 22.3909 15.1547 22.58 15.1131 22.8412Z" fill="#253B80"/>
<path d="M21.0695 22.8166H20.077C19.9924 22.8166 19.9194 22.8784 19.9064 22.9624L19.8624 23.24L19.793 23.1394C19.5781 22.8275 19.099 22.7232 18.6207 22.7232C17.5239 22.7232 16.5871 23.5539 16.4047 24.7193C16.3098 25.3005 16.4447 25.8564 16.7744 26.244C17.0769 26.6004 17.5097 26.7489 18.0246 26.7489C18.9083 26.7489 19.3984 26.1807 19.3984 26.1807L19.3542 26.4564C19.3375 26.5619 19.4187 26.6565 19.5245 26.6565H20.4185C20.5607 26.6565 20.6807 26.5534 20.7031 26.4131L21.2396 23.016C21.2565 22.9114 21.1756 22.8166 21.0695 22.8166ZM19.686 24.7483C19.5903 25.3154 19.1402 25.696 18.5662 25.696C18.278 25.696 18.0476 25.6036 17.8997 25.4284C17.753 25.2545 17.6973 25.0069 17.744 24.7311C17.8334 24.1689 18.291 23.7758 18.8562 23.7758C19.1381 23.7758 19.3672 23.8694 19.5181 24.0461C19.6694 24.2246 19.7294 24.4738 19.686 24.7483Z" fill="#253B80"/>
<path d="M26.3559 22.8166H25.3585C25.2633 22.8166 25.1739 22.8639 25.12 22.943L23.7443 24.9693L23.1612 23.0221C23.1245 22.9002 23.0121 22.8166 22.8848 22.8166H21.9047C21.7856 22.8166 21.7028 22.933 21.7407 23.0451L22.8394 26.2692L21.8065 27.7272C21.7253 27.8421 21.8071 28 21.9474 28H22.9436C23.0382 28 23.1267 27.9539 23.1803 27.8763L26.4977 23.0878C26.5771 22.9733 26.4956 22.8166 26.3559 22.8166Z" fill="#253B80"/>
<path d="M29.6577 20.8994H27.5847C27.4432 20.8994 27.3226 21.0024 27.3004 21.1424L26.4621 26.4574C26.4455 26.5622 26.5267 26.6568 26.6325 26.6568H27.6962C27.795 26.6568 27.8796 26.5847 27.8951 26.4865L28.133 24.9799C28.1548 24.8396 28.2757 24.7365 28.4172 24.7365H29.0731C30.4387 24.7365 31.2264 24.0759 31.4325 22.7666C31.5255 22.1938 31.4361 21.7437 31.1679 21.4285C30.8736 21.0824 30.3514 20.8994 29.6577 20.8994ZM29.8968 22.8405C29.7838 23.5843 29.2155 23.5843 28.6658 23.5843H28.3533L28.573 22.1953C28.586 22.1114 28.6582 22.0495 28.7433 22.0495H28.8867C29.2607 22.0495 29.6141 22.0495 29.7965 22.2629C29.9053 22.3902 29.9383 22.5793 29.8968 22.8405Z" fill="#179BD7"/>
<path d="M35.8534 22.8166H34.8615C34.7763 22.8166 34.7039 22.8784 34.6911 22.9624L34.6472 23.24L34.5775 23.1394C34.3626 22.8275 33.8838 22.7232 33.4055 22.7232C32.3087 22.7232 31.3722 23.5539 31.1898 24.7193C31.0952 25.3005 31.2295 25.8564 31.5592 26.244C31.8623 26.6004 32.2945 26.7489 32.8094 26.7489C33.6931 26.7489 34.1832 26.1807 34.1832 26.1807L34.1389 26.4564C34.1223 26.5619 34.2035 26.6565 34.3099 26.6565H35.2036C35.3452 26.6565 35.4658 26.5534 35.4879 26.4131L36.0246 23.016C36.041 22.9114 35.9598 22.8166 35.8534 22.8166ZM34.4699 24.7483C34.3747 25.3154 33.9241 25.696 33.35 25.696C33.0624 25.696 32.8315 25.6036 32.6836 25.4284C32.5369 25.2545 32.4817 25.0069 32.5278 24.7311C32.6178 24.1689 33.0749 23.7758 33.6401 23.7758C33.9219 23.7758 34.1511 23.8694 34.302 24.0461C34.4538 24.2246 34.5138 24.4738 34.4699 24.7483Z" fill="#179BD7"/>
<path d="M37.0238 21.0452L36.1731 26.4574C36.1564 26.5622 36.2376 26.6568 36.3434 26.6568H37.1987C37.3408 26.6568 37.4614 26.5537 37.4832 26.4134L38.3221 21.0988C38.3388 20.9939 38.2576 20.8991 38.1518 20.8991H37.1941C37.1096 20.8994 37.0368 20.9612 37.0238 21.0452Z" fill="#179BD7"/>
<path d="M23.0685 17.018L23.3021 15.5346L22.7819 15.5226H20.2979L22.0241 4.57691C22.0295 4.54387 22.0469 4.51306 22.0723 4.49118C22.0978 4.4693 22.1304 4.45724 22.1643 4.45724H26.3527C27.7432 4.45724 28.7028 4.74659 29.2038 5.3177C29.4387 5.58561 29.5882 5.86558 29.6606 6.17368C29.7365 6.49697 29.7378 6.88321 29.6637 7.3543L29.6583 7.38868V7.69053L29.8932 7.82359C30.091 7.92853 30.2482 8.04864 30.3688 8.18617C30.5697 8.41524 30.6996 8.70637 30.7546 9.05153C30.8113 9.40652 30.7925 9.82893 30.6996 10.3072C30.5925 10.8573 30.4192 11.3364 30.1852 11.7284C29.97 12.0897 29.6958 12.3893 29.3703 12.6215C29.0596 12.8421 28.6903 13.0095 28.2728 13.1167C27.8682 13.2221 27.407 13.2752 26.9011 13.2752H26.5751C26.342 13.2752 26.1156 13.3592 25.9379 13.5096C25.7597 13.6632 25.6419 13.8731 25.6057 14.1026L25.5811 14.2361L25.1685 16.8505L25.1498 16.9465C25.1449 16.9769 25.1364 16.9921 25.1239 17.0023C25.1127 17.0117 25.0966 17.018 25.081 17.018H23.0685Z" fill="#253B80"/>
<path d="M30.1157 7.42349C30.1032 7.50342 30.0889 7.58513 30.0728 7.66908C29.5204 10.505 27.6307 11.4846 25.2173 11.4846H23.9884C23.6933 11.4846 23.4446 11.699 23.3986 11.9901L22.7694 15.9802L22.5913 17.1113C22.5614 17.3024 22.7087 17.4748 22.9016 17.4748H25.0811C25.3392 17.4748 25.5584 17.2872 25.5991 17.0327L25.6205 16.922L26.0308 14.3178L26.0572 14.1749C26.0974 13.9195 26.3171 13.732 26.5752 13.732H26.9011C29.0127 13.732 30.6658 12.8747 31.1489 10.3938C31.3507 9.35739 31.2463 8.49203 30.7122 7.88341C30.5506 7.69989 30.3501 7.54763 30.1157 7.42349Z" fill="#179BD7"/>
<path d="M29.5377 7.1931C29.4533 7.16854 29.3662 7.14621 29.2769 7.12612C29.1872 7.10647 29.0952 7.08906 29.0005 7.07388C28.6692 7.02029 28.3062 6.99484 27.9173 6.99484H24.6344C24.5536 6.99484 24.4768 7.01315 24.408 7.04619C24.2567 7.11898 24.1441 7.26231 24.1169 7.43779L23.4185 11.8611L23.3984 11.9901C23.4444 11.699 23.6931 11.4846 23.9883 11.4846H25.2171C27.6306 11.4846 29.5203 10.5045 30.0726 7.66909C30.0892 7.58515 30.103 7.50343 30.1155 7.42351C29.9757 7.34938 29.8244 7.28598 29.6614 7.23195C29.6212 7.21855 29.5797 7.2056 29.5377 7.1931Z" fill="#222D65"/>
<path d="M24.1171 7.43779C24.1443 7.26231 24.2569 7.11897 24.4082 7.04664C24.4774 7.01359 24.5538 6.99529 24.6346 6.99529H27.9175C28.3064 6.99529 28.6694 7.02074 29.0007 7.07432C29.0954 7.0895 29.1874 7.10692 29.2771 7.12656C29.3664 7.14666 29.4535 7.16898 29.5379 7.19354C29.5799 7.20605 29.6214 7.21899 29.662 7.23194C29.825 7.28597 29.9764 7.34983 30.1162 7.4235C30.2805 6.37551 30.1148 5.66196 29.5482 5.01584C28.9235 4.30453 27.796 4 26.3533 4H22.1649C21.8702 4 21.6188 4.21433 21.5732 4.50591L19.8287 15.5641C19.7943 15.7829 19.9631 15.9802 20.1837 15.9802H22.7695L23.4187 11.8611L24.1171 7.43779Z" fill="#253B80"/>
</svg>
