<svg width="24" height="24" viewBox="0 0 24 24" fill="none" xmlns="http://www.w3.org/2000/svg">
<path fill-rule="evenodd" clip-rule="evenodd" d="M11.1 2C10.7048 2 10.3467 2.23273 10.1862 2.59386L6.89453 10.0001H5.10494C3.48337 9.97674 2.20892 11.288 2.00902 12.7658C2.00301 12.8102 2 12.855 2 12.8998V19.1998C2 19.2446 2.00301 19.2894 2.00902 19.3338C2.21793 20.8783 3.54769 22.0225 5.105 21.9998H7.4795C7.48632 21.9999 7.49315 22 7.5 22H17.9531C19.346 22.0126 20.5367 20.999 20.7465 19.6215L21.9884 11.5216L21.9887 11.5201C22.112 10.7078 21.8723 9.88251 21.3333 9.26259C20.7956 8.64426 20.0141 8.29253 19.1949 8.3H14.8V5.7C14.8 3.65654 13.1434 2 11.1 2ZM8.5 20H17.9693C18.3682 20.0045 18.7095 19.7145 18.7693 19.32L18.7696 19.3184L20.0113 11.2199C20.0463 10.9882 19.9779 10.7519 19.824 10.5749C19.6701 10.3978 19.446 10.2973 19.2114 10.2999L19.2 10.3001L13.8 10.3C13.2477 10.3 12.8 9.85228 12.8 9.3V5.7C12.8 4.9728 12.3434 4.35225 11.7013 4.10939L8.5 11.3122V20Z" fill="#5680E9"/>
</svg>
